<svg id="Layer_1" data-name="Layer 1" xmlns="http://www.w3.org/2000/svg" viewBox="0 0 200 200"><defs><style>.cls-1{fill:#fff;}</style></defs><path class="cls-1" d="M100,48.72A51.28,51.28,0,1,0,151.32,100,51.2,51.2,0,0,0,100,48.72Zm0,84.62A33.34,33.34,0,1,1,133.38,100,33.39,33.39,0,0,1,100,133.34Zm65.34-86.71a12,12,0,1,1-12-12A11.94,11.94,0,0,1,165.38,46.63Zm34,12.13c-.76-16-4.42-30.21-16.15-41.9S157.3,1.51,141.28.7c-16.51-.93-66-.93-82.52,0-16,.76-30.16,4.42-41.9,16.11S1.51,42.7.7,58.72c-.93,16.51-.93,66,0,82.52.76,16,4.42,30.21,16.16,41.9s25.88,15.35,41.9,16.16c16.52.93,66,.93,82.52,0,16-.76,30.21-4.42,41.91-16.16s15.35-25.88,16.15-41.9c.94-16.52.94-66,0-82.48ZM178,159a33.72,33.72,0,0,1-19,19c-13.17,5.23-44.41,4-59,4s-45.83,1.16-58.95-4a33.72,33.72,0,0,1-19-19c-5.22-13.16-4-44.4-4-58.95s-1.16-45.83,4-58.95a33.72,33.72,0,0,1,19-19c13.17-5.23,44.41-4,59-4s45.84-1.16,59,4a33.72,33.72,0,0,1,19,19c5.22,13.16,4,44.4,4,59S183.23,145.83,178,159Z"/></svg>