<svg id="Layer_1" data-name="Layer 1" xmlns="http://www.w3.org/2000/svg" viewBox="0 0 300 200"><defs><style>.cls-1{fill:#fff;}</style></defs><path class="cls-1" d="M157,77.83H146.62v22.93h10.3c7.81,0,12.26-4.18,12.26-11.48S164.73,77.83,157,77.83Z"/><path class="cls-1" d="M275.21-.29h-250a25,25,0,0,0-25,25v150a25,25,0,0,0,25,25h250a25,25,0,0,0,25-25v-150A25,25,0,0,0,275.21-.29ZM106,122.77h0a31,31,0,0,1-21.49,7.82,32.43,32.43,0,0,1-29-17.85h0a32.44,32.44,0,0,1,0-29.1h0a32.41,32.41,0,0,1,29-17.86,31.17,31.17,0,0,1,21.69,8.44l-9.25,9.25a17.59,17.59,0,0,0-12.44-4.86A19.37,19.37,0,0,0,66.29,92h0a19.49,19.49,0,0,0,0,12.4h0a20,20,0,0,0,2.07,4.32,19.67,19.67,0,0,0,27.16,6h0v0a15,15,0,0,0,6.46-9.85H84.49V92.34h30.56a38.24,38.24,0,0,1,.56,6.59A31.67,31.67,0,0,1,106,122.77ZM178.31,91A18.32,18.32,0,0,1,159,108.34H146.62V128h-9V70.28l21.67.06c.59,0,1.17,0,1.76,0a18.13,18.13,0,0,1,17.24,19C178.35,89.87,178.34,90.45,178.31,91Zm38.09,37h-8.29v-6.94h-.19a14.83,14.83,0,0,1-13.22,7.37v0c-8.33,0-14.14-5-14.14-12.48s5.63-11.67,16-12.3l11.18-.66V99.88c0-4.7-3.07-7.26-8.55-7.26a7.89,7.89,0,0,0-8.49,5.89h-8.07c.26-7.48,7.3-12.92,16.81-12.92,10.27,0,16.93,5.37,16.93,13.7Zm27.52,2.25c-3.59,10.11-7.71,13.44-16.45,13.44v.05a25.77,25.77,0,0,1-3.4-.22v-6.94c.55.07,1.92.14,2.63.14a7.12,7.12,0,0,0,7.55-6l.82-2.55-15.19-42h9.37l10.56,34.11H240l10.56-34.16h9.11Z"/><path class="cls-1" d="M189.29,115.8c0,3.5,3,5.81,7.81,5.81v0c.18,0,.36,0,.54,0a9.74,9.74,0,0,0,10.13-9.33V109.1l-10,.62C192.22,110.06,189.29,112.17,189.29,115.8Z"/></svg>