<svg id="Layer_1" data-name="Layer 1" xmlns="http://www.w3.org/2000/svg" viewBox="0 0 167 200"><defs><style>.cls-1{fill:#fff;}</style></defs><path class="cls-1" d="M167,95.5A83.5,83.5,0,0,1,58.79,175.26c3.4-5.55,8.48-14.64,10.37-21.88,1-3.91,5.18-19.87,5.18-19.87,2.73,5.19,10.68,9.6,19.13,9.6,25.18,0,43.33-23.17,43.33-52,0-27.58-22.53-48.22-51.48-48.22-36,0-55.19,24.18-55.19,50.54,0,12.26,6.54,27.51,16.94,32.36,1.58.74,2.42.4,2.79-1.11.27-1.15,1.69-6.84,2.33-9.47a2.51,2.51,0,0,0-.57-2.39c-3.41-4.21-6.17-11.88-6.17-19.05,0-18.42,13.94-36.23,37.71-36.23,20.51,0,34.88,14,34.88,34,0,22.59-11.41,38.25-26.26,38.25-8.18,0-14.34-6.77-12.35-15.08,2.35-9.94,6.9-20.64,6.9-27.82,0-6.39-3.44-11.75-10.57-11.75-8.39,0-15.12,8.66-15.12,20.27a30.08,30.08,0,0,0,2.49,12.39s-8.25,35-9.76,41.48c-1.69,7.21-1,17.38-.31,24A83.51,83.51,0,1,1,167,95.5Z"/></svg>