<svg id="Layer_1" data-name="Layer 1" xmlns="http://www.w3.org/2000/svg" viewBox="0 0 200 200"><defs><style>.cls-1{fill:#fff;}</style></defs><path class="cls-1" d="M100,0A100,100,0,1,0,200,100,100,100,0,0,0,100,0Zm57.69,94.64h-9.05a45.36,45.36,0,0,1-.08,11.23h9.1v10.49H145.92a45.79,45.79,0,0,1-42.79,29.46H63.05V116.36H50.31V105.87H63.05V94.64H50.31V84.14H63.05v-30h40.08a45.8,45.8,0,0,1,43,30h11.58ZM134.3,84.14H73.55V64.2H102.7A35,35,0,0,1,134.3,84.14Zm3.11,10.5a36.57,36.57,0,0,1,.31,4.58v1.6a36.39,36.39,0,0,1-.35,5.05H73.55V94.64ZM73.55,116.36h60.51A35,35,0,0,1,102.7,135.8H73.55Z"/></svg>