<svg id="Layer_1" data-name="Layer 1" xmlns="http://www.w3.org/2000/svg" viewBox="0 0 200 200"><defs><style>.cls-1{fill:#fff;}</style></defs><path class="cls-1" d="M100,0A100,100,0,1,0,200,100,100,100,0,0,0,100,0Zm.09,39.19,7.65,12.66q14.64,24.3,29.32,48.56c.93,1.53.68,2.09-.81,3q-17.53,10.22-35,20.62c-.74.43-1.27.71-2.14.2Q81.07,113.45,63,102.77c-.25-.15-.47-.33-.84-.59Zm0,121.62C87.52,143.07,75,125.5,62.57,107.92c.07-.1.14-.19.2-.29.52.29,1,.57,1.54.87,11.28,6.65,22.57,13.28,33.8,20a3.18,3.18,0,0,0,3.83-.06q17.4-10.38,34.87-20.65a1.42,1.42,0,0,1,1.06-.21Z"/></svg>