<svg id="Layer_1" data-name="Layer 1" xmlns="http://www.w3.org/2000/svg" viewBox="0 0 318 200"><defs><style>.cls-1{fill:#fff;}</style></defs><path class="cls-1" d="M128.09,89.33c17.56-8.39,26.73-21.09,26.73-40.85,0-39-29-48.48-62.56-48.48H0V195.67H94.85c35.56,0,69-17.06,69-56.81,0-24.57-11.65-42.74-35.72-49.53ZM43,33.4H83.37c15.52,0,29.48,4.37,29.48,22.36,0,16.62-10.87,23.3-26.22,23.3H43Zm46,129H43V108.55H89.89c18.93,0,30.91,7.89,30.91,27.93,0,19.77-14.3,26-31.8,26ZM286.94,29.54H207.6V10.27h79.34V29.54ZM318,126.88C318,85,293.51,50,249.06,50c-43.17,0-72.49,32.47-72.49,75,0,44.11,27.77,74.37,72.49,74.37,33.85,0,55.77-15.24,66.31-47.65H281c-3.7,12.09-18.94,18.5-30.75,18.5-22.81,0-34.79-13.36-34.79-36.05h102.2C317.86,131.85,318,129.36,318,126.88ZM215.55,109.65C216.82,91,229.19,79.4,247.85,79.4c19.54,0,29.37,11.48,31,30.25Z"/></svg>