<svg id="Layer_1" data-name="Layer 1" xmlns="http://www.w3.org/2000/svg" viewBox="0 0 167 200"><defs><style>.cls-1{fill:#fff;}</style></defs><path class="cls-1" d="M83.5,12A83.5,83.5,0,1,0,167,95.5,83.53,83.53,0,0,0,83.5,12Zm33.91,122.86a6.48,6.48,0,0,1-3.61-1.21c-21-12.66-45.45-13.2-69.59-8.25a21.5,21.5,0,0,1-4,.87A5.24,5.24,0,0,1,34.88,121a5.34,5.34,0,0,1,4.58-5.65c27.58-6.1,55.76-5.56,79.8,8.82,2,1.31,3.26,2.49,3.26,5.55a5.09,5.09,0,0,1-5.11,5.19Zm9-22.09a8.3,8.3,0,0,1-4.14-1.41c-21-12.46-52.42-17.48-80.33-9.9a13.86,13.86,0,0,1-4,.87,6.53,6.53,0,0,1-6.53-6.53,6.63,6.63,0,0,1,5.22-7,113.43,113.43,0,0,1,32.92-4.58c21.86,0,43,5.43,59.6,15.32a7,7,0,0,1,3.8,6.64A6.52,6.52,0,0,1,126.46,112.77ZM136.9,87.12a7.69,7.69,0,0,1-4.34-1.32c-24-14.31-66.84-17.74-94.58-10a15.87,15.87,0,0,1-4.34.88,7.77,7.77,0,0,1-7.85-8,7.94,7.94,0,0,1,5.86-8c11.85-3.47,25.12-5.12,39.56-5.12,24.58,0,50.34,5.12,69.16,16.09a7.91,7.91,0,0,1,4.34,7.61,7.8,7.8,0,0,1-7.81,7.85Z"/></svg>