<svg id="Layer_1" data-name="Layer 1" xmlns="http://www.w3.org/2000/svg" viewBox="0 0 300 200"><defs><style>.cls-1{fill:#fff;}</style></defs><path class="cls-1" d="M299.42,20.78A25,25,0,0,0,274.79,0H24.94A25,25,0,0,0,.31,20.78a14.93,14.93,0,0,0-.58,4.1V175a15,15,0,0,0,.58,4.1,25,25,0,0,0,24.63,20.78H274.79a25,25,0,0,0,24.63-20.78A15,15,0,0,0,300,175V24.88A14.93,14.93,0,0,0,299.42,20.78ZM52.28,178.61h-30v-30A30,30,0,0,1,52.28,178.61ZM22.25,51.3v-30h30A30,30,0,0,1,22.25,51.3Zm90.08,48.64c0-24.87,16.81-45,37.53-45s37.54,20.17,37.54,45-16.81,45-37.54,45S112.33,124.81,112.33,99.94Zm135.12,78.67a30,30,0,0,1,30-30v30Zm30-127.31a30,30,0,0,1-30-30h30Z"/></svg>