<svg id="Layer_1" data-name="Layer 1" xmlns="http://www.w3.org/2000/svg" viewBox="0 0 300 200"><defs><style>.cls-1{fill:#fff;}</style></defs><g id="visa-solid-large"><path class="cls-1" d="M275,0H25A25,25,0,0,0,0,25V175a25,25,0,0,0,25,25H275a25,25,0,0,0,25-25V25A25,25,0,0,0,275,0ZM87.5,129,75.56,82.81A6.24,6.24,0,0,0,72,77.75a61.85,61.85,0,0,0-14.75-4.88l.38-1.68H83.06A7,7,0,0,1,90,77.06l6.25,33.44,15.56-39.31h15.75L103.31,129Zm34.06,0,12.5-57.81h15L136.56,129Zm41.88.88a44.83,44.83,0,0,1-16.63-3.07l2.69-12.5A31.19,31.19,0,0,0,164.87,118c4.32,0,8.94-1.81,8.94-5.69,0-2.5-1.93-4.31-7.75-7.19S152.87,97.75,153,89.44c0-11.25,10.5-19.13,25-19.13a40.57,40.57,0,0,1,14,2.56l-2.63,12.5a27.94,27.94,0,0,0-14.37-3c-4.31.56-6.25,2.74-6.25,4.81,0,6.81,21,7.69,20.94,22.94-.06,12-10.38,19.75-26.06,19.75ZM228.5,129l-1.81-8.62h-19L204.63,129H188.87l22.44-53.56a6.81,6.81,0,0,1,6.25-4.25h12.5L242.19,129Zm-16.69-20.5h12.5l-4.56-21.69Z"/></g></svg>