<svg id="Layer_1" data-name="Layer 1" xmlns="http://www.w3.org/2000/svg" viewBox="0 0 140 200"><defs><style>.cls-1{fill:#fff;}</style></defs><path class="cls-1" d="M121.56,152.48l18.31,13.66c-8.2,15-21.86,33.33-41.53,33.33-10.11,0-21.31-7.11-31.41-13.94s-18.85-13.94-24.59-13.94c-9.29,0-16.39,8.19-25.13,22.4L0,181.69c9.85-14.2,22.13-33.6,41.8-33.6,13.38,0,24.31,7.11,33.32,13.93S91.51,176,98.07,176c10.38,0,15.3-9.85,23.49-23.5M26.23,68c0-24.31,19.4-44.53,43.72-44.53S113.63,43.71,113.63,68c0,24-19.4,44.52-43.71,44.52S26.22,92.06,26.22,68m112,0c0-38.52-30-68-68.29-68S1.64,29.5,1.64,68s30.05,68,68.29,68,68.31-29.51,68.31-68"/></svg>