<svg id="Layer_1" data-name="Layer 1" xmlns="http://www.w3.org/2000/svg" viewBox="0 0 200 200"><defs><style>.cls-1{fill:#fff;}</style></defs><path class="cls-1" d="M89.52,135.58v3.33a1.69,1.69,0,0,1-2.3,1.67,42,42,0,0,1,0-80,1.65,1.65,0,0,1,2.27,1.67V65.5A2.51,2.51,0,0,1,88,67.69a35,35,0,0,0,0,65.7A2.51,2.51,0,0,1,89.52,135.58ZM200,100A100,100,0,1,1,100,0,100,100,0,0,1,200,100Zm-44.06,0A55.94,55.94,0,1,0,100,155.94,55.95,55.95,0,0,0,155.94,100ZM112.75,60.66a1.66,1.66,0,0,0-2.27,1.67V65.6A2.51,2.51,0,0,0,112,67.78a34.94,34.94,0,0,1,0,65.66,2.26,2.26,0,0,0-1.48,2.18v3.27a1.65,1.65,0,0,0,2.27,1.67,41.93,41.93,0,0,0,0-79.9Zm2.64,48.19c0-8.17-5-10.92-14.6-12.23-7.12-1-8.47-2.68-8.47-6,0-3.16,2.38-5.39,7-5.39,4.21,0,6.6,1.49,7.61,4.85a1.75,1.75,0,0,0,1.67,1.26h3.67a1.59,1.59,0,0,0,1.62-1.92c-1.19-5.34-4.77-8.51-10.41-9.53V74.36a1.75,1.75,0,0,0-1.75-1.76H98.27a1.76,1.76,0,0,0-1.76,1.76v5.43c-6.9.95-11.4,5.59-11.4,11.49,0,7.66,4.62,10.63,14.42,11.94,6.64,1.08,8.51,2.53,8.51,6.29s-3.22,6.28-7.72,6.28c-6.13,0-8.14-2.68-8.88-6.12a1.78,1.78,0,0,0-1.71-1.4h-4a1.59,1.59,0,0,0-1.62,1.87c1,5.86,4.73,10.09,12.36,11.15v5.5a1.76,1.76,0,0,0,1.76,1.76h3.49a1.76,1.76,0,0,0,1.76-1.76v0h.05v-5.59C110.75,120.1,115.39,115.05,115.39,108.85Z"/></svg>