<svg id="Layer_1" data-name="Layer 1" xmlns="http://www.w3.org/2000/svg" viewBox="0 0 300 200"><defs><style>.cls-1{fill:none;}.cls-2{fill:#fff;}</style></defs><path class="cls-1" d="M68.12,152.13A66,66,0,0,0,121,165.19H121a66.9,66.9,0,0,0,8.72-2.26l.53-.17c1.33-.46,2.64-.95,3.94-1.49l.73-.32c1.32-.56,2.63-1.16,3.92-1.81A79.08,79.08,0,0,1,112.13,100a78,78,0,0,1,26.74-59.13A66.33,66.33,0,0,0,52.31,65.35a.75.75,0,0,0-.07.12c-.47.75-.91,1.51-1.34,2.28l-.23.44c-.38.69-.75,1.38-1.1,2.08-.12.23-.22.47-.34.7-.31.63-.61,1.26-.9,1.9l-.5,1.19c-.21.49-.43,1-.62,1.47-.36.92-.71,1.84-1,2.77l-.12.37c-.28.84-.55,1.69-.8,2.54l-.09.29c-.25.9-.5,1.79-.72,2.69a.43.43,0,0,1,0,.11A66.28,66.28,0,0,0,68.12,152.13Z"/><path class="cls-1" d="M150,152.13a66.32,66.32,0,0,0,0-104.26,66.26,66.26,0,0,0,0,104.26Z"/><path class="cls-1" d="M235.29,50.84a66.25,66.25,0,0,0-74.29-10,72.18,72.18,0,0,1,10,10.38,79,79,0,0,1-9.87,107.88A66.22,66.22,0,0,0,235.29,50.84Z"/><path class="cls-2" d="M275,0H25A25,25,0,0,0,0,25V175a25,25,0,0,0,25,25H275a25,25,0,0,0,25-25V25A25,25,0,0,0,275,0ZM44.45,84.19c.22-.9.47-1.79.72-2.69l.09-.29c.25-.85.52-1.7.8-2.54l.12-.37c.32-.93.67-1.85,1-2.77.19-.49.41-1,.62-1.47l.5-1.19c.29-.64.59-1.27.9-1.9.12-.23.22-.47.34-.7.35-.7.72-1.39,1.1-2.08l.23-.44c.43-.77.87-1.53,1.34-2.28a.75.75,0,0,1,.07-.12,66.33,66.33,0,0,1,86.56-24.48A78,78,0,0,0,112.13,100a79.08,79.08,0,0,0,26.74,59.13c-1.29.65-2.6,1.25-3.92,1.81l-.73.32c-1.3.54-2.61,1-3.94,1.49l-.53.17a66.9,66.9,0,0,1-8.72,2.26H121A66.49,66.49,0,0,1,44.43,84.3.43.43,0,0,0,44.45,84.19ZM150,47.87a66.32,66.32,0,0,1,0,104.26,66.26,66.26,0,0,1,0-104.26Zm102.74,75.87a66.12,66.12,0,0,1-91.61,35.39A79,79,0,0,0,171,51.25a72.18,72.18,0,0,0-10-10.38,66.26,66.26,0,0,1,91.74,82.87Z"/></svg>