<svg id="Layer_1" data-name="Layer 1" xmlns="http://www.w3.org/2000/svg" viewBox="0 0 199 200"><defs><style>.cls-1{fill:#fff;}</style></defs><path class="cls-1" d="M198.87,99.44A99.44,99.44,0,0,1,70,194.42c4-6.61,10.1-17.44,12.35-26.06,1.2-4.65,6.17-23.65,6.17-23.65,3.25,6.17,12.71,11.42,22.78,11.42,30,0,51.6-27.58,51.6-61.86,0-32.84-26.83-57.42-61.31-57.42C58.7,36.85,35.89,65.64,35.89,97c0,14.6,7.77,32.76,20.16,38.53,1.89.89,2.89.48,3.33-1.32.32-1.36,2-8.14,2.77-11.27a3,3,0,0,0-.68-2.84c-4-5-7.34-14.16-7.34-22.7,0-21.93,16.6-43.14,44.91-43.14,24.41,0,41.54,16.64,41.54,40.46,0,26.9-13.6,45.54-31.28,45.54-9.74,0-17.08-8-14.71-18,2.8-11.83,8.22-24.58,8.22-33.12,0-7.62-4.09-14-12.59-14-10,0-18,10.3-18,24.14a35.77,35.77,0,0,0,3,14.75s-9.82,41.62-11.63,49.4c-2,8.58-1.2,20.69-.36,28.55A99.45,99.45,0,1,1,198.87,99.44Z"/></svg>