<svg id="Layer_1" data-name="Layer 1" xmlns="http://www.w3.org/2000/svg" viewBox="0 0 191 200"><defs><style>.cls-1{fill:#fff;}</style></defs><path class="cls-1" d="M125.61,119.08h31.05c17.13,0,31-.09,31-.21S173.5,94.72,156.34,65.46L125.15,12.27h-30c-18.55,0-30,.09-29.95.24S78.82,36.66,95.43,65.92Z"/><path class="cls-1" d="M66.64,124.92l-.35.57c-.2.32-7,12-15.12,26.07s-15,25.87-15.28,26.32l-.51.83,62.09-.06,62.08-.07L175.13,152c8.57-14.64,15.58-26.71,15.58-26.83s-27.91-.2-62-.2Z"/><path class="cls-1" d="M76.42,44.37c-8.07-14.24-14.75-26-14.83-26.06S.82,122.38-.28,124.62C-.6,125.27,0,126.48,14,152c14,25.73,14.59,26.71,14.94,26.15,2-3.15,62.2-107.27,62.2-107.56S84.5,58.6,76.42,44.37Z"/></svg>