<svg id="Layer_1" data-name="Layer 1" xmlns="http://www.w3.org/2000/svg" viewBox="0 0 751 200"><defs><style>.cls-1{fill:#fff;}</style></defs><path class="cls-1" d="M444.08,62.57c-13.61-8.62-29.2-11-46.32-7.08a69.68,69.68,0,0,0-6.91,2.07l-1.28.43v-.1q0-18,0-36v-18c0-3-.74-3.79-3.78-3.8h-5.61c-4.39,0-8.78,0-13.17,0a3.77,3.77,0,0,0-2.73.87,3.79,3.79,0,0,0-.91,2.78c0,49.75,0,100.94,0,152.15a3.57,3.57,0,0,0,2.77,3.78,117.61,117.61,0,0,0,37.17,6.25h.22a79.94,79.94,0,0,0,24.68-3.44c17.5-5.61,29.22-16.71,34.83-33a65.1,65.1,0,0,0,1-39.26C460.76,78.15,454,68.87,444.08,62.57ZM389.56,82.76a4.26,4.26,0,0,1,0-.8.54.54,0,0,1,.14-.08,45.9,45.9,0,0,1,18.9-4.48,35.66,35.66,0,0,1,15,3.3c9.19,4.19,14.58,11.71,16,22.37,1.23,9.17,0,17-3.75,24-4.29,8-11.2,12.85-21.12,14.93a56.1,56.1,0,0,1-24.49-.58c-.72-.16-.72-.16-.72-1,.05-7.24,0-14.48,0-21.72Z"/><path class="cls-1" d="M162.46,57.76a59.44,59.44,0,0,0-35.91-2.53c-17.7,4.1-30.17,14.49-37.06,30.88-4.95,11.77-6,24.51-3,37.87,2.89,13.11,9.58,23.63,19.88,31.25,9.5,7,20.9,10.63,33.88,10.69h.05l2.39-.15c2-.12,4-.24,5.93-.41a34.53,34.53,0,0,0,3.86-.65c18.77-3.92,31.84-14.44,38.86-31.25,6-14.28,6.34-29.22,1.12-44.4C187.3,74.12,177.21,63.59,162.46,57.76Zm-50.9,55.52c-.09-.72-.19-1.44-.28-2.16l.2,0v-1.37c-.08-8,1.66-14.65,5.3-20.37A26.26,26.26,0,0,1,138.7,76.64c9.74-.47,17.31,2.65,23.15,9.54,4.09,4.83,6.49,10.93,7.34,18.66a41.88,41.88,0,0,1-1.94,18.88c-3.62,10.23-10.47,16.48-20.37,18.59-16.08,3.42-30.07-5.34-34-21.3A66.6,66.6,0,0,1,111.56,113.28Z"/><path class="cls-1" d="M751.13,106.39l0-2.14A69.72,69.72,0,0,0,749,85.43c-3.27-12-9.4-20.38-18.74-25.67-10-5.65-21.48-7.46-34.15-5.36-18.27,3-31.27,13.49-38.62,31.1-4.52,10.83-5.8,22.47-3.9,35.58a51.41,51.41,0,0,0,9.8,24.16c9.44,12.43,22.63,19.11,40.31,20.42q3.07.22,6.14.23a78.69,78.69,0,0,0,15.4-1.5,59.18,59.18,0,0,0,19.84-7.33,4.4,4.4,0,0,0,2.37-4.27c-.08-2.15-.06-4.36-.05-6.49,0-.89,0-1.78,0-2.68V132.19l-2.36,1.22C744,134,743,134.5,742,135c-2.16,1.15-4.2,2.24-6.3,3.19A55.75,55.75,0,0,1,717,142.77c-9.65.82-17.18-.49-23.7-4.11a28.35,28.35,0,0,1-14.92-21.78c0-.14,0-.26,0-.37h14.71q27.2,0,54.41,0a4.14,4.14,0,0,0,2.88-1,3.74,3.74,0,0,0,.83-2.83C751.09,110.65,751.11,108.49,751.13,106.39Zm-24.82-7.76h-.14c-2.84,0-5.69,0-8.53,0H679.35c.3-1.21.58-2.35.93-3.44,2.45-7.49,6.38-12.73,12-16,8-4.65,19.8-4,26.41,1.48,3.62,3,5.83,7.06,6.94,12.82.19,1,.29,2,.41,3.07.07.71.15,1.42.25,2.12Z"/><path class="cls-1" d="M346.54,95.6a72.66,72.66,0,0,0-1.3-13.29c-2.45-12.74-9.87-21.33-22.05-25.52a63.25,63.25,0,0,0-20.25-3.11c-5.22,0-10.6.45-15.33.88A134.58,134.58,0,0,0,254.84,62a3.9,3.9,0,0,0-3,4.16q.06,18.21,0,36.42v20.91q0,18.18,0,36.37a3.16,3.16,0,0,0,3.61,3.66c6.82-.1,13.07-.1,19.08,0a3.81,3.81,0,0,0,2.77-.86,3.77,3.77,0,0,0,.9-2.87q0-23.38,0-46.77,0-15.94,0-31.88a3.18,3.18,0,0,0,0-.64h0a1.87,1.87,0,0,1,.32-.11c10.62-2.58,19.28-3.23,27.25-2,7.28,1.09,11.9,4.8,13.73,11a29.14,29.14,0,0,1,1.08,7.82c.08,19.77.06,39.4,0,62.79a3.09,3.09,0,0,0,3.54,3.54c6.65-.09,12.84-.08,18.92,0h.13a3.57,3.57,0,0,0,2.58-.86,3.74,3.74,0,0,0,.9-2.79q0-12.27,0-24.55C346.61,122.3,346.62,108.84,346.54,95.6Z"/><path class="cls-1" d="M557.09,91a60.08,60.08,0,0,0-.68-9.08c-2.12-13.42-9.75-22.15-22.67-25.94-8.63-2.53-18-3-28.58-1.45a69.57,69.57,0,0,0-21.79,7c-.75.39-2.19,1.5-2.21,2.94-.07,4.91-.07,9.76-.06,14.89V86l3.06-1.5,1.06-.51c.95-.43,1.89-.88,2.83-1.33A58.78,58.78,0,0,1,494.24,80c9.72-3.4,17.86-4.14,25.62-2.34,6.68,1.54,10.51,5.41,11.36,11.49a39,39,0,0,1,.21,6.07c0,1.29,0,2.62,0,3.94v.13h-.24c-7.18,0-12.69.12-17.86.29a67.85,67.85,0,0,0-19,3.37c-7.54,2.5-12.9,6-16.87,10.88-5.07,6.28-7,14-5.77,23.64,1.17,9.45,6.06,16.64,14.53,21.38,7,3.91,15,6,25.25,6.45,2.1.1,4.21.14,6.33.14,4.44,0,8.88-.18,13.22-.36l.48,0A125.61,125.61,0,0,0,554,161.88a3.54,3.54,0,0,0,3.17-3.9q0-16.15,0-32.3Q557.12,108.32,557.09,91Zm-25.7,36.3v7.28c0,3.23,0,6.46,0,9.69v.15h-.06c-7.76,1-16.05,1.69-24.14-.76-5.42-1.63-8.44-4.39-9.5-8.69-1.67-6.77,1.35-12.09,8.28-14.59a48,48,0,0,1,11.38-2.47,80.27,80.27,0,0,1,8.08-.29h.78c1.65,0,3.29,0,4.93,0a1.12,1.12,0,0,1,.26,0,2.4,2.4,0,0,1,0,.27C531.36,121,531.37,124.18,531.39,127.27Z"/><path class="cls-1" d="M630.46,104.85a73.23,73.23,0,0,0-17.57-6.2c-4.73-1.14-9.31-2.38-13.32-5a9.28,9.28,0,0,1-4.29-8,9.54,9.54,0,0,1,4.64-8,16.7,16.7,0,0,1,8.61-2.28,44,44,0,0,1,14.72,2.32,48.57,48.57,0,0,1,14.55,7.75l2.59,2V77.63c0-4.14,0-8.28,0-12.41a4.41,4.41,0,0,0-2.54-4.38,57.88,57.88,0,0,0-47.11-4.15c-9.21,3-15.71,9.29-18.79,18.14a37.89,37.89,0,0,0-.43,23.22c2.3,8,7.84,13.86,16.47,17.34,4,1.6,8.14,2.82,12.17,4,1.42.41,2.84.83,4.25,1.26l1.21.37c3.92,1.18,7.62,2.3,10.87,4.52s4.52,5.4,4,9.79a7.84,7.84,0,0,1-5.58,7,31,31,0,0,1-9.09,1.78,51.7,51.7,0,0,1-30-9.79l-1.18-.79-3.21-2.16v9.88c0,4.17,0,8.48,0,12.71a4.36,4.36,0,0,0,2.6,4.35,61.43,61.43,0,0,0,23,7.1c3,.28,5.89.43,8.61.43a57.87,57.87,0,0,0,17.66-2.52C634,160,640.75,154,644.1,144.89A37.54,37.54,0,0,0,646,129.12C645.34,118.17,640.1,110,630.46,104.85Z"/><path class="cls-1" d="M77.7,141a3.1,3.1,0,0,0-3.34-1A42,42,0,0,1,53,142c-11.13-1.88-18.68-7.25-23.08-16.42-4.11-8.57-4.65-17.91-1.6-27.77,2.85-9.2,9-15.46,18.25-18.6a39.58,39.58,0,0,1,25.65.27c2.37.78,3.89.18,5.13-2,1.73-3.07,3.58-6.15,5.36-9.14q1.19-2,2.34-3.93c.2-.33.38-.67.57-1l1-1.91-2-1.06c-.37-.19-.69-.37-1-.53-12.11-6-25.43-7.67-39.61-5C19.23,59.67,2.45,78.49.27,104A65.15,65.15,0,0,0,1.55,124.3C5.25,140.27,14,152,27.6,159.06A59.7,59.7,0,0,0,55.8,166a77.51,77.51,0,0,0,17.44-2.1A55.25,55.25,0,0,0,87,158.56l1.55-.82-2.68-4.18C83.09,149.27,80.42,145.1,77.7,141Z"/><path class="cls-1" d="M233.31,57a3.86,3.86,0,0,0-2.8-.9c-6.78.1-13.46.06-19.1,0a3.39,3.39,0,0,0-2.53.83,3.45,3.45,0,0,0-.85,2.54q0,50.32,0,100.66a3.42,3.42,0,0,0,.85,2.56,3.33,3.33,0,0,0,2.42.82h.08c4.63,0,9.26,0,13.89,0h5.06c3.15,0,3.87-.74,3.87-3.95V99.09q0-19.64,0-39.28A3.81,3.81,0,0,0,233.31,57Z"/><path class="cls-1" d="M221.16,10.15a16.53,16.53,0,0,0-11.67,4.63A14.5,14.5,0,0,0,205,25.13c-.08,10.53,8.19,16.32,16,16.44h.21A15.54,15.54,0,0,0,232.13,37,16.19,16.19,0,0,0,237,25.6C237,17.29,229.91,10.36,221.16,10.15Z"/></svg>