<svg id="Layer_1" data-name="Layer 1" xmlns="http://www.w3.org/2000/svg" viewBox="0 0 200 200"><defs><style>.cls-1{fill:#fff;}</style></defs><path class="cls-1" d="M117.55,112.12a10,10,0,0,1-6.16,15.47,29.23,29.23,0,0,1-11.71.09c-4.33-.76-8.58-1.94-12.88-2.89-.64-.15-1-.28-.77-1.05q2.91-11.28,5.79-22.58a.89.89,0,0,1,.2-.25c6.34,1.51,12.77,2.82,18.7,5.79A18.16,18.16,0,0,1,117.55,112.12ZM200,100A100,100,0,1,1,100,0,100,100,0,0,1,200,100ZM135.76,68.07a47.86,47.86,0,0,0-12.49-6.33c-.84-.31-1-.68-.82-1.47q1.15-4.43,2.29-8.87c.64-2.51,1.27-5,1.94-7.67L116,41c-1.47,5.73-2.91,11.38-4.38,17.12L103,56.06l4.38-17.23-10.58-2.7c-.16.47-.3.8-.39,1.14-1.3,5.1-2.62,10.19-3.86,15.3-.23,1-.55,1.13-1.48.88-3.69-1-7.4-1.91-11.1-2.84l-9.34-2.34c-1,3.83-1.93,7.56-2.89,11.34.94.24,1.82.43,2.68.67a65.64,65.64,0,0,1,7,2.08,5.14,5.14,0,0,1,2.89,6.29q-2.67,10.51-5.33,21c-2.2,8.65-4.45,17.3-6.61,26-.48,1.93-2.62,3.75-4.89,3.08-2.61-.77-5.29-1.3-8-1.94l-5.32,12.09,21.58,5.57c-1.53,6-3,11.88-4.52,17.82L77.79,155c.16-.6.29-1,.4-1.46,1.29-5,2.59-10.08,3.86-15.13.16-.63.33-1,1.06-.83l7.8,2.12-4.43,17.52L97,159.87c.15-.46.29-.79.38-1.13,1.31-5.14,2.63-10.27,3.89-15.42.23-.95.58-1.27,1.56-1s2.13.36,3.19.54a48.29,48.29,0,0,0,16.57.28,19.87,19.87,0,0,0,12.5-7.16,30,30,0,0,0,6-14.81c.81-5.59-.58-10.52-4.65-14.47a78,78,0,0,0-6.32-5c6.73-1.66,11-5.89,12.78-12.64C145.31,80.3,143,73.43,135.76,68.07Zm-19.19,6c-4.87-2.8-10.31-3.88-15.67-5.18-.82-.2-1,.32-1.12.94-.68,2.75-1.39,5.48-2.09,8.22-1,4-2,8-3.07,12.13,1.92.5,3.64,1,5.38,1.41,4.74,1.15,9.52,2,14.43,1.27a9.49,9.49,0,0,0,8.1-12C121.7,77.66,119.33,75.64,116.57,74Z"/></svg>