<svg id="Layer_1" data-name="Layer 1" xmlns="http://www.w3.org/2000/svg" viewBox="0 0 199 200"><defs><style>.cls-1{fill:#fff;}</style></defs><path class="cls-1" d="M99.44,0a99.44,99.44,0,1,0,99.43,99.44A99.48,99.48,0,0,0,99.44,0Zm40.37,146.31a7.69,7.69,0,0,1-4.29-1.44c-25-15.08-54.13-15.72-82.87-9.83a26,26,0,0,1-4.78,1,6.23,6.23,0,0,1-6.33-6.33A6.36,6.36,0,0,1,47,123c32.84-7.25,66.4-6.61,95,10.51,2.44,1.56,3.89,3,3.89,6.61a6.07,6.07,0,0,1-6.1,6.18ZM150.6,120c-2.09,0-3.49-.93-4.93-1.69C120.61,103.49,83.24,97.51,50,106.53c-1.93.53-3,1-4.77,1a7.79,7.79,0,0,1-7.78-7.78c0-4.29,2.08-7.14,6.21-8.3a134.85,134.85,0,0,1,39.22-5.45c26,0,51.16,6.45,71,18.24a8.37,8.37,0,0,1,4.53,7.9A7.77,7.77,0,0,1,150.6,120ZM163,89.45a9.21,9.21,0,0,1-5.17-1.56C129.31,70.85,78.27,66.76,45.23,76a19.16,19.16,0,0,1-5.17,1,9.26,9.26,0,0,1-9.35-9.46,9.47,9.47,0,0,1,7-9.58c14.11-4.13,29.91-6.1,47.11-6.1,29.27,0,60,6.1,82.36,19.17,3.13,1.8,5.17,4.29,5.17,9.06a9.29,9.29,0,0,1-9.3,9.34Z"/></svg>