<svg id="Layer_1" data-name="Layer 1" xmlns="http://www.w3.org/2000/svg" viewBox="0 0 360 200"><defs><style>.cls-1{fill:#fff;}</style></defs><path class="cls-1" d="M158.77,178.1l-13.22-35.86S124.1,166.15,92,166.15c-28.48,0-48.66-24.75-48.66-64.34C43.31,51.12,68.91,33,94,33c46.76,0,52.59,37.47,71,94.85,13.22,40,38,72.14,109.26,72.14,51.12,0,85.79-15.68,85.79-56.88,0-51.26-44.09-56.67-80.86-64.76C261,74.18,255.66,66.8,255.66,54.42c0-14,11.11-22.29,29.25-22.29,19.83,0,30.52,7.46,32.13,25.18l41.21-4.93C354.94,15.26,329.35,0,287.3,0c-37.12,0-73.41,14-73.41,59,0,28.06,13.65,45.78,47.82,54,31.57,7.46,56.11,9.71,56.11,32.14,0,15.26-14.84,21.44-42.89,21.44-41.63,0-59-21.86-68.84-52C183.59,46.55,175.43,0,92.67,0,32.13,0,0,38.32,0,103.5,0,166.15,32.13,200,89.93,200,136.48,200,158.77,178.1,158.77,178.1Z"/></svg>