<svg id="Layer_1" data-name="Layer 1" xmlns="http://www.w3.org/2000/svg" viewBox="0 0 200 200"><defs><style>.cls-1{fill:#fff;}</style></defs><path class="cls-1" d="M100,0A100,100,0,1,0,200,100,100,100,0,0,0,100,0Zm44.53,139.05c-.52,2-1,4-1.47,6-.42,1.7-.84,3.39-1.33,5.07a1.24,1.24,0,0,1-.76.65,4.52,4.52,0,0,1-1.28.05H57.12c2.88-11,5.71-21.81,8.59-32.79-2.21.2-4.08,1.3-6.07,2s-4,1.47-6.28,2.29c.73-2.61,1.38-4.93,2-7.24.47-1.73,1-3.46,1.39-5.2a1.53,1.53,0,0,1,1.2-1.26c2.9-1,5.75-2.09,8.62-3.16.55-.2,1.11-.39,1.65-.62A2.38,2.38,0,0,0,69.75,103c1.25-5.2,2.62-10.38,4-15.55,1-3.9,2.09-7.79,3.11-11.69C77.93,71.53,79,67.27,80.11,63c.93-3.47,2-6.91,3-10.37.32-1.17.58-2.35.87-3.53H115.8c-3.67,14-7.31,27.84-11.06,42.13,4.87-1.71,9.39-3.41,14.19-5.3-.42,1.65-.76,3-1.1,4.36-.7,2.72-1.43,5.43-2.07,8.16a1.42,1.42,0,0,1-1,1.09c-1.33.53-2.66,1-4,1.54-2.69,1-5.37,1.94-8.07,2.87a2.42,2.42,0,0,0-1.81,1.93c-1.07,4.47-2.32,8.89-3.49,13.33-.78,3-1.52,5.94-2.31,8.9-.27,1-.63,2-1,3.27,2.71.07,5.14,0,7.58,0h45C145.9,134.12,145.19,136.57,144.53,139.05Z"/></svg>