<svg id="Layer_1" data-name="Layer 1" xmlns="http://www.w3.org/2000/svg" viewBox="0 0 454 200"><defs><style>.cls-1{fill:#fff;}</style></defs><g id="_73M172.tif" data-name="73M172.tif"><path class="cls-1" d="M267.46,200c0-.56,0-1.12,0-1.69q0-69.76,0-139.54V57.06h29.24c.57,3.36,1.15,6.75,1.72,10.14l.32.28a30.46,30.46,0,0,1,2.1-2.41c5.28-5,11.31-8.68,18.64-9.64,10-1.32,19.15.53,26.66,7.77a36.61,36.61,0,0,1,9,14.8A80.15,80.15,0,0,1,359,102.29a101.72,101.72,0,0,1-2.2,25.87c-1.92,8.16-5,15.75-10.63,22.14a37.55,37.55,0,0,1-23.39,12.54A48.46,48.46,0,0,1,302,161.37c-.37-.11-.74-.19-1.24-.32v33.39l-7.28,1.21-25.1,4.15a1.55,1.55,0,0,0-.41.2Zm33.28-88.38v23c0,2,0,2,1.89,2.68l.22.09c8.12,2.58,14.51.84,18.64-7a32.5,32.5,0,0,0,3.17-9.3,79.25,79.25,0,0,0,.43-25.3c-.52-3.91-1.46-7.74-3.77-11.06a9.22,9.22,0,0,0-9.57-4.2c-4.06.62-7.28,2.81-10.2,5.55a2.46,2.46,0,0,0-.83,2C300.75,96,300.74,103.78,300.74,111.62Z"/><path class="cls-1" d="M0,153.69c.47-2.68,1-5.36,1.42-8,.85-5.19,1.65-10.39,2.49-15.58a2.45,2.45,0,0,1,.16-.53c3.63,1.59,7.17,3.31,10.83,4.71a63.67,63.67,0,0,0,19.77,4.5,17.25,17.25,0,0,0,7.12-1c4.9-1.92,5.93-7.59,2-11.07-3.12-2.73-7-4.08-10.72-5.62-4.75-1.95-9.53-3.84-14.19-6a33.65,33.65,0,0,1-10-7.2A25.94,25.94,0,0,1,1.58,91.74c-.64-7,.11-13.73,3.53-20,4.14-7.55,10.72-12,18.75-14.54a55.54,55.54,0,0,1,20-2.07A78.52,78.52,0,0,1,71.21,61.5a1.56,1.56,0,0,1,1.09,2.06c-1.28,7.56-2.49,15.13-3.72,22.7,0,.19-.08.38-.14.68l-2.89-1.29a65.34,65.34,0,0,0-21.38-5.9,19.36,19.36,0,0,0-7.54.46c-2.07.66-3.63,1.85-4.1,4.13a5.3,5.3,0,0,0,2.14,5.53A26.21,26.21,0,0,0,40,93.15c4.37,1.9,8.87,3.54,13.29,5.34a52.59,52.59,0,0,1,14.28,8.15,25.73,25.73,0,0,1,9.23,16.16,38.53,38.53,0,0,1-1.6,19.6c-3.43,9.34-10.3,15.09-19.54,18.25a58,58,0,0,1-22.13,2.62,82.89,82.89,0,0,1-30.18-7.19C2.2,155.57,1.11,155,0,154.41Z"/><path class="cls-1" d="M454,119.82H399.05a17.15,17.15,0,0,0,15.51,18.41,58.27,58.27,0,0,0,31.48-5.8l1.49-.74c.49,3,1,5.87,1.43,8.76.68,4.32,1.31,8.66,2.06,13a1.4,1.4,0,0,1-.78,1.72,54.23,54.23,0,0,1-16.94,6.38c-11,2.29-22.11,2.7-33.16.27-16.49-3.64-26.89-13.81-31.51-30-2.77-9.7-3.25-19.62-2.51-29.62a62,62,0,0,1,5.62-22.42c6.69-14,17.66-22.27,33.14-24.3,8.89-1.17,17.58-.4,25.83,3.39,8.69,4,14.44,10.78,18.25,19.37a65.29,65.29,0,0,1,5.05,21A144.41,144.41,0,0,1,454,119.82ZM423.17,99.35c-.26-2.59-.42-5.08-.78-7.54A23.51,23.51,0,0,0,419,81.87a9.41,9.41,0,0,0-11.67-3.55c-3,1.25-4.74,3.74-5.95,6.62-1.91,4.59-2.43,9.45-2.81,14.41Z"/><path class="cls-1" d="M125.55,27.16V57h21.31c-1.36,8.33-2.68,16.48-4,24.76H125.57v1.43c0,13.87,0,27.74,0,41.61a23.92,23.92,0,0,0,.69,5.71c.82,3.34,3.16,5.18,6.6,5.59,3.66.45,7.19-.36,10.74-1.08l1-.19V136c0,7.92,0,15.84,0,23.76a1.23,1.23,0,0,1-1.11,1.46,62.62,62.62,0,0,1-30,.66c-11-2.5-17.48-9.56-19.63-20.51a59.71,59.71,0,0,1-1.09-11c-.11-15.64,0-31.28,0-46.92V81.8H79.05c1.27-7.8,2.51-15.42,3.77-23.12,3-.5,6-1,8.94-1.45.8-.11,1.15-.36,1.28-1.21,1.22-7.65,2.52-15.29,3.71-23,.18-1.15.7-1.36,1.69-1.52,8.85-1.41,17.69-2.88,26.53-4.33Z"/><path class="cls-1" d="M155.65,57h1.25c8.85,0,17.7,0,26.55,0,1,0,1.37.21,1.52,1.27.48,3.5,1.12,7,1.72,10.61a3.06,3.06,0,0,0,.38-.54c3.35-8.11,9.56-12.17,18.16-12.64a52.61,52.61,0,0,1,6.82.53c.64,0,.87.32.87,1q0,14.77,0,29.55a2,2,0,0,1-.08.31c-1.16-.09-2.34-.22-3.52-.26-4.73-.16-9.41,0-13.85,1.94a15.8,15.8,0,0,0-6,4.36,2.83,2.83,0,0,0-.54,1.74c0,10.13,0,20.26,0,30.39v36.08H155.65Z"/><path class="cls-1" d="M254.33,57.09V161.27H221V57.09Z"/><path class="cls-1" d="M220.11,29.12a17.52,17.52,0,1,1,17.44,17.67A17.41,17.41,0,0,1,220.11,29.12Z"/></g></svg>