<svg id="Layer_1" data-name="Layer 1" xmlns="http://www.w3.org/2000/svg" viewBox="0 0 200 200"><defs><style>.cls-1{fill:#fff;}</style></defs><path class="cls-1" d="M91.61,94c-2-7.14-3.84-14.3-5.48-21.69,8.22-2,19.6-7,26.25.53C121.59,85.57,101.18,92.34,91.61,94ZM200,100A100,100,0,1,1,100,0,100,100,0,0,1,200,100ZM132.64,87.62c-1.22-.16-2.45-.26-3.71-.4,3.28-3.72,6-7.7,5.95-13-.12-8.25-5.12-17-13.46-19.22-6.31-1.73-12.71-.73-19.12-.29-1.72-5.84-2.78-11.83-4.72-17.69-3.66.76-7.21,1.69-10.79,2.75,1.08,5.88,3.25,11.42,3.93,17.3-2.77.89-5.45,1.47-8.2,2.18-1.34-5.91-2.77-11.68-4.34-17.44-3.68,1.09-7.36,1.74-11,2.88,1.48,5.93,3,11.8,4.46,17.8-7.39,1.84-14.73,3.53-22,5.53,1.27,4,1.84,8,3.24,11.75,5.09-1.06,13.34-5.62,15.3,2s3.71,14.9,5.62,22.34c1.92,8.17,4.14,16.25,6.21,24.37,1.69,8.12-6.46,5.65-10.89,8.27.48,4.46.47,8.95,1.23,13.46,7.31-2,14.51-3.81,21.84-5.27,1.54,6.09,2.73,12.09,4.64,18,3.59-1.29,7.27-1.62,10.77-2.78-1.13-6.08-3.13-11.83-4.23-17.91,2.87-.57,5.52-1.71,8.47-1.76,1.66,5.82,2.83,11.66,4.56,17.46,3.76-.86,7.42-1.6,11-2.81-1.51-6-3.4-11.88-4.25-17.93,9.6-3.63,20.88-7.09,25.21-17.38C153.92,107.36,147.72,88.65,132.64,87.62Zm-9.92,15c-9.23-4.11-19.47.17-28.65,2.49C96.52,113,98,121,100.18,128.85c1.74-.43,3.3-.83,4.87-1.21,7.72-2.09,17-3.73,21.49-11.14C129.36,111.32,127.75,105.27,122.72,102.65Z"/></svg>