<svg id="Layer_1" data-name="Layer 1" xmlns="http://www.w3.org/2000/svg" viewBox="0 0 117 200"><defs><style>.cls-1{fill:#fff;}</style></defs><path class="cls-1" d="M101.78,139.66,117.1,151.1C110.24,163.67,98.8,179,82.34,179c-8.47,0-17.85-5.95-26.31-11.66s-15.78-11.68-20.58-11.68c-7.78,0-13.72,6.86-21,18.75L0,164.12C8.24,152.23,18.53,136,35,136c11.21,0,20.36,5.95,27.9,11.66s13.73,11.67,19.21,11.67c8.7,0,12.82-8.25,19.68-19.67M22,68.94c0-20.35,16.24-37.28,36.6-37.28S95.13,48.6,95.13,69c0,20.13-16.24,37.28-36.59,37.28S22,89.08,22,69m93.78,0C115.73,36.7,90.57,12,58.55,12S1.37,36.7,1.37,69s25.16,57,57.18,57,57.19-24.71,57.19-57"/></svg>