<svg id="Layer_1" data-name="Layer 1" xmlns="http://www.w3.org/2000/svg" viewBox="0 0 170 200"><defs><style>.cls-1{fill:#fff;fill-rule:evenodd;}</style></defs><path class="cls-1" d="M84.62,12.27A85,85,0,0,0,57.77,177.84c4.24.78,5.8-1.84,5.8-4.09,0-2-.08-7.36-.12-14.45-23.63,5.13-28.62-11.39-28.62-11.39C31,138.1,25.4,135.48,25.4,135.48c-7.71-5.27.58-5.16.58-5.16,8.53.6,13,8.75,13,8.75,7.57,13,19.88,9.24,24.72,7.06.77-5.49,3-9.23,5.39-11.35-18.86-2.15-38.69-9.44-38.69-42A32.86,32.86,0,0,1,39.16,70c-.87-2.15-3.79-10.79.83-22.48,0,0,7.14-2.29,23.37,8.7a80.52,80.52,0,0,1,42.54,0c16.22-11,23.34-8.7,23.34-8.7,4.63,11.69,1.71,20.33.84,22.48a32.76,32.76,0,0,1,8.73,22.8c0,32.63-19.86,39.82-38.79,41.92,3,2.62,5.77,7.81,5.77,15.73,0,11.36-.1,20.52-.1,23.31,0,2.27,1.53,4.91,5.84,4.08A85,85,0,0,0,84.62,12.27Z"/></svg>