<svg id="Layer_1" data-name="Layer 1" xmlns="http://www.w3.org/2000/svg" viewBox="0 0 300 200"><defs><style>.cls-1{fill:#fff;}</style></defs><g id="jcb-solid-large"><path class="cls-1" d="M275,0H25A25,25,0,0,0,0,25V175a25,25,0,0,0,25,25H275a25,25,0,0,0,25-25V25A25,25,0,0,0,275,0ZM111.75,150a25,25,0,0,1-25,25H50V122.13a106.39,106.39,0,0,0,25.69,3.12c23.75,0,30.75-9.19,30.75-20.44v-29H85.12v29.13a12,12,0,0,1-13.37,12.5A49.46,49.46,0,0,1,50,111.69V50A25,25,0,0,1,75,25h36.56Zm69.5,0a25,25,0,0,1-25,25H119.31V117.31c6.25,5.38,17.32,8.82,35,7.94a106,106,0,0,0,19.63-3V111.69a50.75,50.75,0,0,1-18.75,5.5c-13.44,1.06-21.57-5.5-21.57-17.19s8.13-18.12,21.57-17.19a47.49,47.49,0,0,1,18.75,5.5V77.75A107.53,107.53,0,0,0,154.31,75c-17.68-.88-28.68,2.56-35,7.94V50a25,25,0,0,1,25-25h36.94ZM250,150a25,25,0,0,1-25,25H188.25V124.06H227c9.06,0,15.94-5,15.94-12.5S236.69,100,228.63,99.44h0A11.74,11.74,0,0,0,240.06,87.5c0-7.13-5.94-11.25-13.87-11.62a10.45,10.45,0,0,0-2.5,0H188.37V50a25,25,0,0,1,25-25H250Zm-34.88-47a7.4,7.4,0,0,1,1.76,0,6.69,6.69,0,0,1,5.06,6.25,6.25,6.25,0,0,1-5.06,6.25H200.62V102.87Zm-14.5-7.56V83.38h14.44a6.16,6.16,0,0,1,0,12.12,4.5,4.5,0,0,1-1.37,0Z"/></g></svg>