<svg id="Layer_1" data-name="Layer 1" xmlns="http://www.w3.org/2000/svg" viewBox="0 0 301 200"><defs><style>.cls-1{fill:#fff;}</style></defs><path class="cls-1" d="M132.59,160.74l-11-30s-17.91,20-44.74,20C53,150.76,36.17,130.09,36.17,97c0-42.34,21.38-57.49,42.34-57.49,39.05,0,43.92,31.3,59.25,79.21C148.8,152.16,169.47,179,229,179c42.69,0,71.64-13.09,71.64-47.5,0-42.81-36.82-47.33-67.53-54.09-15.15-3.46-19.61-9.63-19.61-20,0-11.69,9.27-18.61,24.42-18.61,16.56,0,25.49,6.22,26.84,21l34.41-4.11C296.42,24.74,275.05,12,239.93,12c-31,0-61.3,11.69-61.3,49.27,0,23.43,11.39,38.22,39.93,45.09,26.36,6.23,46.85,8.11,46.85,26.84,0,12.74-12.38,17.91-35.81,17.91-34.77,0-49.27-18.26-57.49-43.4C153.32,50.87,146.51,12,77.39,12,26.84,12,0,44,0,98.44,0,150.76,26.84,179,75.1,179,114,179,132.59,160.74,132.59,160.74Z"/></svg>