<svg id="Layer_1" data-name="Layer 1" xmlns="http://www.w3.org/2000/svg" viewBox="0 0 300 200"><defs><style>.cls-1{fill:#fff;}</style></defs><path class="cls-1" d="M296.16,160.12a20.73,20.73,0,0,0,3.76-1.81V175a25,25,0,0,1-25,25h-250a25,25,0,0,1-25-25V91H14.85l2.83-7.53H23L25.92,91H143V83.34L148.86,91h32.36V87.16a21,21,0,0,0,2.58,1.42,25.59,25.59,0,0,0,2.7,1.06,26,26,0,0,0,3.43.85,30.73,30.73,0,0,0,5.49.48h19.36l2.83-7.53H223L225.85,91h32.46V83.19l4.9,7.78h22.55V38.5H261.69v8.39l-5.35-8.39h-21V49.11l-4.7-10.61H196a31,31,0,0,0-4.86.37,27.79,27.79,0,0,0-3.91.9,25.38,25.38,0,0,0-2.87,1.1,22.91,22.91,0,0,0-3.11,1.73V38.5H68L65,47.65,61.81,38.5H35.48V49.22L30.72,38.5H9.24L-.08,60.26V25a25,25,0,0,1,25-25h250a25,25,0,0,1,25,25v84H113.68l-4.76,6.72-4.7-6.72H50.64V161.5H104l4.65-6.82,4.8,6.82h33.42V150.18h-.35a32.26,32.26,0,0,0,11.27-2V161.5h23.3v-7.63L187,161.5h101.1A23.58,23.58,0,0,0,296.16,160.12ZM28.65,74.85H11.82l-3,7.58h-9L15,47H26.12L41.24,82.43H31.68Zm-2.73-6.78-3.13-7.83-2.58-6.62-2.58,6.62-3.08,7.83ZM194.56,82.43H195l3.48-7.53h-2.57c-5.82,0-9.26-3.64-9.26-9.91v-.5c0-5.62,3.09-9.81,9.16-9.81H205V47h-9.91c-10.92,0-16.89,7.34-16.89,17.4V65C178.23,75.56,184.35,82.38,194.56,82.43ZM121.87,75.2H102.05v-7h19.36V61.1H102.05V54.22h19.82V47H93.56V82.43h28.31Zm14.71,7.23h-8.49V47H147.3c7.53,0,12.23,4.61,12.23,11.23,0,5.66-3.59,10-9.61,11.12l11.78,13H151.14L140.57,69.69h-4Zm0-19.41h10c3,0,4.65-1.92,4.65-4.35a4.27,4.27,0,0,0-4.65-4.4h-10Zm114.85-1.77-.1-2.93,1.77,2.93,13.55,21.18h9.91V47h-8.29V67.52l.1,2.63-1.57-2.63L253.55,47H243.14V82.43h8.29Zm-200-3-.2-9.56,9.8,33.72h7.69l9.81-33.51-.21,9.3V82.43h8.24V47h-15L64.9,72.12,58.12,47H43.21V82.43h8.24Zm121.43,8.59V47h-8.5V82.43h8.5Zm26.84,15.57L214.88,47h11.18l15.11,35.39h-9.55l-3-7.58H211.75l-3,7.58Zm14.76-14.36h11.38l-3.14-7.83-2.58-6.62-2.58,6.62Zm74.77,63.61h-8.19a3.23,3.23,0,0,1-3.44-3.39,3.32,3.32,0,0,1,3.44-3.54h15.36l3.14-7.18H281.31c-7.64,0-12.18,4.65-12.18,11,0,6.52,4.29,10.26,11,10.26h8.14a3.27,3.27,0,0,1,3.48,3.44,3.37,3.37,0,0,1-3.48,3.59H270.14V153H288c6.69,0,11-3.57,12-8.92a12.84,12.84,0,0,0,.21-2.35,13.28,13.28,0,0,0-.21-2.33C299.1,134.47,295.23,131.68,289.25,131.68Zm-102,8.24,11.78,13H188.5l-10.57-12.74h-4V153h-8.5V117.57h19.22c7.53,0,12.23,4.6,12.23,11.22C196.89,134.46,193.3,138.8,187.28,139.92Zm-3.38-6.38c3,0,4.65-1.91,4.65-4.34s-1.62-4.4-4.65-4.4h-10v8.74Zm71.68-1.86h-8.19a3.23,3.23,0,0,1-3.44-3.39,3.32,3.32,0,0,1,3.44-3.54h15.37l3.13-7.18H247.64c-7.63,0-12.18,4.65-12.18,11,0,6.52,4.3,10.26,11,10.26h8.14a3.27,3.27,0,0,1,3.48,3.44,3.37,3.37,0,0,1-3.48,3.59H236.47V153h17.89c7.64,0,12.19-4.65,12.19-11.27C266.55,135.37,262.46,131.68,255.58,131.68ZM203,153h28.31v-7.13H211.5V138.7h19.36v-7.07H211.5v-6.88h19.82v-7.18H203ZM160.84,129.4c0,6.83-4.8,11.88-12.53,11.88H137.64V153h-8.49V117.57h19.46C156.14,117.57,160.84,122.38,160.84,129.4Zm-8.54,0a4.12,4.12,0,0,0-4.5-4.34H137.64v8.69H147.8A4.15,4.15,0,0,0,152.3,129.45ZM58.88,153H87.19v-7.13H67.37V138.7H86.74v-7.07H67.37v-6.88H87.19v-7.18H58.88Zm68.3-35.39H116.87l-8.7,11.22-8.64-11.22H88.91l14.15,17.69L89,153H99.27l8.7-11.38L116.66,153h10.62l-14.21-17.85Z"/></svg>