<svg xmlns="http://www.w3.org/2000/svg" viewBox="0 0 487 200"><defs><style>.cls-1,.cls-2{fill:#fff;}.cls-2{fill-rule:evenodd;}</style></defs><g id="Layer_3" data-name="Layer 3"><path class="cls-1" d="M0,166.84V18.59H38.42c14.14,0,27.38-.32,34.12.9S88.14,24,92.68,26.88c6.18,3.74,10.81,9.34,14.06,16.73s4.79,16.25,4.79,26.48c0,16.9-3.66,30.14-12.59,38.91S70.26,121.51,53,121.51H43.21v45.25H0ZM43,94.38c.57.08.65.08,2,.17,13.41.48,16.9-2.85,19-5.37,3.17-3.89,3.25-12.67,3.25-20.79,0-6.74.24-12.27-4.63-17.55C59.46,47.35,51.58,46.21,43,46.21l.08,2.44V94.38Z"/><polygon class="cls-1" points="395.35 166.19 298.12 166.19 298.12 17.7 346.04 17.7 346.04 121.68 395.35 121.68 395.35 166.19"/><rect class="cls-1" x="403.64" y="68.96" width="45.98" height="97.48"/><rect class="cls-1" x="402.99" y="18.35" width="46.95" height="40.29"/><polygon class="cls-1" points="470.33 151.98 456.76 151.98 456.76 154.82 461.8 154.82 461.8 165.62 465.29 165.62 465.29 154.82 470.33 154.82 470.33 151.98"/><path class="cls-2" d="M233.62,156c6.17-2.2,12.27-6.91,17.55-11.7,14.86-13.49,30.46-36.47,29.24-64.42-1.3-29.4-17.06-48.25-38-60,6.1,1.3,11.05,5.36,15.76,9.18,13.49,10.89,23.72,27.78,24.13,51.58.57,31.6-16.25,53.21-32.9,68.08,5.2-2.6,9.26-7.4,13.16-12.11,11-13.24,21.2-32.08,21.2-55.64,0-33.14-18.76-52.23-40.62-64.74,7.23,2.11,13.65,6.41,19,11,13.24,11.21,25,31,23.4,57.11-1.55,25.83-13,46.22-28.51,61.08a102.27,102.27,0,0,1-61.5,27.79,58.52,58.52,0,0,1-9.18,0c-38.17-3.17-65.87-27.62-68.8-65.15a71.42,71.42,0,0,1,0-11.7c1.71-23.64,12.27-42.48,26.32-57.1,15.27-15.84,34.52-27.79,61.41-29.65.65-2.93,1.46-6.34,1.87-8.45,8.85,9.42,19.58,19.66,30.7,30.7-13.4,6.83-26.4,14.06-39.47,21.21.32-2.69.89-5.77,1-7.72-22.5,4-41.43,20.31-45.32,43.13-4.8,27.86,13.8,49.23,40.61,49.39,27,.16,50-20.71,54.1-44.6,3.33-19.33-5.2-32.81-16.08-41.67,10.15,6.75,21.2,18.85,19.74,37-2.28,28.27-28.84,51.75-56.7,51.91-15.19.08-28.76-6.66-38.43-18,9.1,13.24,25,20.22,43.14,19,14.21-1,26.24-8,35.09-16.49,9.1-8.7,16.08-20.8,18-33.31a54.81,54.81,0,0,0,0-15C251.33,62,242.39,55.15,234.27,45.81c11.54,9.26,23.72,21.52,22.91,41.42-1.22,29.09-29,54.75-58.16,56.7-19.09,1.3-30.87-5.19-40.94-14.62,9.58,12.11,27.53,18.36,46.46,15.35,26.89-4.22,50.85-26.64,53.77-54.5,2.6-25.1-10.07-36.8-22.25-49.15,12.91,9.83,24,20.64,24.77,40.7.73,17.38-7.8,34.44-18.68,45.33-17.38,17.38-51.26,28.83-77.58,12.83,22.42,17.14,57.19,7.31,75.71-9.5,13.4-12.19,23.23-28.43,21.61-52.64-1.3-19.49-12.35-29.49-24.86-39.88,12.92,6.58,25.27,19.82,27,38.74,2.36,24.86-9.1,43.3-23.07,55.57C224.2,147,200.48,155.87,173.67,149c44.19,13.81,85.54-19.09,91.47-57,4.22-27.3-9.75-43.38-23.07-54.92-1.38-1.13-2.11-2-4-3.65,19,9.91,34.77,31.68,28.51,62.55-7.23,35.9-43.21,65.06-89.6,57.43,6.74,2.68,14.62,2.11,21.45,1.78,21.12-1.13,40.21-11.69,50.44-23.07,12.43-13.81,22.26-31.19,20.31-56.29-1.71-22.66-14.38-33.55-29.89-45.57,6.5,2.36,12.18,6.9,16.81,12a56.37,56.37,0,0,1,15.19,34.36c1.87,25.83-10,45.09-23.07,58.57-13.89,14.38-32.73,23.56-56.7,23.8,37.53,1.14,62.55-21.93,74.65-47.52,6.91-14.7,8.94-35.42,3.33-51.58-5.19-15-17.14-25.18-28.91-33.47,20.55,11,37.77,31.52,34,63.44A75.75,75.75,0,0,1,263.92,121c-11.21,18.76-29.49,32-50,39.15,15.19-3.33,29.65-12.43,40.21-24.13,13-14.37,23-32.57,22.34-57.75C275.7,51,258.88,35.33,241.66,23a3.56,3.56,0,0,1,.65.16c18.77,9.18,33,25.18,35.91,50,5.11,39.4-20.72,68-44.6,82.86"/><polygon class="cls-1" points="483.98 165.87 483.98 159.29 482.02 162.62 479.83 162.54 477.88 159.29 477.88 165.87 474.47 165.87 474.47 151.98 477.8 151.98 480.89 158.07 484.06 151.98 487.39 151.98 487.39 165.87 483.98 165.87"/></g></svg>