<svg id="Layer_1" data-name="Layer 1" xmlns="http://www.w3.org/2000/svg" viewBox="0 0 266.92 200"><defs><style>.cls-1{fill:#fff;}</style></defs><path class="cls-1" d="M107.34,86.79c14.72-7,22.4-17.68,22.4-34.24,0-32.67-24.34-40.62-52.43-40.62H0v164H79.49c29.8,0,57.79-14.3,57.79-47.61,0-20.59-9.76-35.81-29.94-41.5ZM36,39.92H69.87c13,0,24.7,3.65,24.7,18.74,0,13.92-9.11,19.52-22,19.52H36ZM74.58,148.05H36V102.89H75.32c15.87,0,25.91,6.62,25.91,23.41,0,16.56-12,21.75-26.65,21.75ZM240.46,36.68H174V20.53h66.49V36.68Zm26,81.57c0-35.12-20.55-64.41-57.79-64.41-36.19,0-60.75,27.21-60.75,62.84,0,37,23.27,62.32,60.75,62.32,28.36,0,46.73-12.77,55.56-39.93H235.51c-3.1,10.13-15.87,15.5-25.78,15.5-19.1,0-29.14-11.2-29.14-30.21h85.64C266.37,122.41,266.51,120.33,266.51,118.25Zm-85.88-14.44c1.07-15.59,11.43-25.35,27.07-25.35,16.38,0,24.61,9.62,26,25.35Z"/></svg>