<svg id="Layer_1" data-name="Layer 1" xmlns="http://www.w3.org/2000/svg" viewBox="0 0 167 200"><defs><style>.cls-1{fill:#fff;}</style></defs><path class="cls-1" d="M83.52,52.67a42.81,42.81,0,1,0,42.81,42.81A42.74,42.74,0,0,0,83.52,52.67Zm0,70.64a27.83,27.83,0,1,1,27.83-27.83,27.88,27.88,0,0,1-27.83,27.83Zm54.54-72.39a10,10,0,1,1-10-10A10,10,0,0,1,138.06,50.92Zm28.35,10.14c-.63-13.38-3.69-25.23-13.48-35s-21.61-12.81-35-13.48c-13.78-.79-55.1-.79-68.88,0-13.34.63-25.19,3.69-35,13.45S1.26,47.64.59,61c-.79,13.78-.79,55.1,0,68.89.63,13.37,3.69,25.22,13.48,35s21.61,12.82,35,13.49c13.78.78,55.1.78,68.88,0,13.38-.64,25.23-3.69,35-13.49s12.81-21.61,13.48-35c.79-13.79.79-55.07,0-68.85ZM148.6,144.7a28.18,28.18,0,0,1-15.87,15.87c-11,4.36-37.07,3.35-49.21,3.35s-38.26,1-49.22-3.35A28.21,28.21,0,0,1,18.43,144.7c-4.36-11-3.35-37.07-3.35-49.22s-1-38.26,3.35-49.21A28.15,28.15,0,0,1,34.3,30.4C45.29,26,71.37,27,83.52,27s38.26-1,49.21,3.36A28.12,28.12,0,0,1,148.6,46.27C153,57.26,152,83.34,152,95.48S153,133.74,148.6,144.7Z"/></svg>