<svg id="Layer_1" data-name="Layer 1" xmlns="http://www.w3.org/2000/svg" viewBox="0 0 300 200"><defs><style>.cls-1{fill:#fff;}</style></defs><path class="cls-1" d="M275,0H25A25,25,0,0,0,0,25V175a25,25,0,0,0,25,25H275a25,25,0,0,0,25-25V25A25,25,0,0,0,275,0ZM78.84,70.85a14,14,0,0,1,9.26-4.78,14.09,14.09,0,0,1-3.27,10h0a11.62,11.62,0,0,1-9.33,4.4A13.21,13.21,0,0,1,78.84,70.85Zm18,50.06c-2.63,3.85-5.34,7.63-9.63,7.71s-5.56-2.48-10.3-2.48-6.3,2.41-10.23,2.55c-4.14.16-7.29-4.07-9.92-7.92-5.37-7.78-9.48-21.93-3.93-31.48a15.22,15.22,0,0,1,12.93-7.86c4.07-.07,7.85,2.7,10.3,2.7s6.85-3.22,12-2.92v0a14.73,14.73,0,0,1,11.48,6.22,14.27,14.27,0,0,0-6.78,11.93A14,14,0,0,0,101.14,112,33.71,33.71,0,0,1,96.84,120.91Zm71.62-29.74a18.32,18.32,0,0,1-19.28,17.32H136.77v19.68h-9V70.43l21.67.06a17.22,17.22,0,0,1,1.76,0,18.13,18.13,0,0,1,17.24,19C168.5,90,168.49,90.6,168.46,91.17Zm38.09,37h-8.29v-6.94h-.19a14.85,14.85,0,0,1-13.22,7.37v0c-8.34,0-14.15-5-14.15-12.48s5.63-11.66,16-12.29l11.18-.67V100c0-4.71-3.07-7.26-8.55-7.26a7.85,7.85,0,0,0-8.48,5.89h-8.08c.26-7.49,7.3-12.93,16.82-12.93,10.26,0,16.92,5.37,16.92,13.71Zm27.52,2.24c-3.59,10.11-7.7,13.45-16.44,13.45v0a24.31,24.31,0,0,1-3.41-.22v-6.94c.55.07,1.92.15,2.63.15a7.12,7.12,0,0,0,7.55-6l.82-2.56L210,86.33h9.37L230,120.44h.18L240.7,86.28h9.11Zm-74.74-41c0,7.3-4.45,11.48-12.26,11.48h-10.3V78H147.1C154.88,78,159.33,82.14,159.33,89.43ZM188,109.88l10-.63v3.26a9.74,9.74,0,0,1-10.13,9.34l-.54,0v0c-4.78,0-7.81-2.32-7.81-5.82S182.37,110.21,188,109.88Z"/></svg>